# xmcd CD database file
#
# Track frame offsets:
#	150
#	13245
#	24695
#	37115
#	47452
#	59265
#	70315
#	81815
#	95000
#	106660
#	118595
#	134257
#	146577
#	161832
#
# Disc length: 2286 seconds
#
# Revision: 0
# Processed by: cddbd v1.4PL0 Copyright (c) Steve Scherf et al.
# Submitted via: CDex 1.40Beta6
#
DISCID=c108ec0e
DTITLE=Kenny Rogers and Dolly Parton - Super stars
DYEAR=1900
DGENRE=Country
TTITLE0=Ruby
TTITLE1=Makin' believe
TTITLE2=Ruben James
TTITLE3=Release Me
TTITLE4=Elvira
TTITLE5=Honky Tonk Angels
TTITLE6=Me and Bobby McGhee
TTITLE7=Little blossom
TTITLE8=Poem for a little lady
TTITLE9=Letter to heaven
TTITLE10=Tulsa turnaround
TTITLE11=Two little orphans
TTITLE12=For the good times
TTITLE13=Girl left alone
EXTD=
EXTT0=
EXTT1=
EXTT2=
EXTT3=
EXTT4=
EXTT5=
EXTT6=
EXTT7=
EXTT8=
EXTT9=
EXTT10=
EXTT11=
EXTT12=
EXTT13=
PLAYORDER=
